<?xml version="1.0" encoding="utf-8" ?>
<svg xmlns="http://www.w3.org/2000/svg" xmlns:xlink="http://www.w3.org/1999/xlink" width="1003" height="860">
	<path fill="#AC8BAE" transform="scale(1.95921 1.68112)" d="M-0 -0L512 0L512 512L-0 512L0 -0Z"/>
	<path fill="#F1F3F3" transform="scale(1.95921 1.68112)" d="M324.887 255.246L334.817 255.248L334.778 258.777L325.018 258.755C324.646 257.845 324.878 256.253 324.887 255.246Z"/>
	<path fill="#F1F3F3" transform="scale(1.95921 1.68112)" d="M371.993 255.245L381.965 255.247L381.957 258.775L372.001 258.754L371.993 255.245Z"/>
	<path fill="#F1F3F3" transform="scale(1.95921 1.68112)" d="M321.286 244.027C321.758 243.991 322.028 244.031 322.484 244.125C322.72 245.788 322.633 247.557 322.649 249.237L320.374 248.807C319.366 248.73 318.02 249.153 317.272 249.837C316.867 250.207 316.427 250.771 316.289 251.312C315.891 252.876 316.204 255.257 316.205 256.894L316.179 270.003L311.542 269.929L311.375 269.331L311.4 244.245L316.218 244.249L316.168 247.375L316.5 247.497L316.692 247.153C317.767 245.354 319.308 244.49 321.286 244.027Z"/>
	<path fill="#F1F3F3" transform="scale(1.95921 1.68112)" d="M260.393 236.752L265.218 236.74L265.217 244.249L269.286 244.227L269.272 247.511L265.213 247.505L265.225 260.037C265.229 261.595 264.993 263.552 265.306 265.042C265.411 265.544 265.563 265.796 265.875 266.189C266.887 266.664 267.514 266.789 268.632 266.604L268.875 266.561L269.269 266.875L269.297 269.061L269.099 269.875C268.395 270.202 267.819 270.258 267.049 270.269C265.192 270.295 263.171 270.097 261.804 268.696C261.182 268.059 260.861 267.409 260.678 266.538C260.236 264.423 260.426 262.02 260.421 259.854L260.459 248C259.964 247.159 258.659 247.859 257.78 247.25C257.758 246.406 257.473 244.909 258 244.28L260.429 244.194L260.393 236.752Z"/>
	<path fill="#F1F3F3" transform="scale(1.95921 1.68112)" d="M336.46 233.999L353.515 233.984L353.494 237.776L347.734 237.747C347.461 238.311 347.585 239.079 347.587 239.701L347.594 244.002L347.61 264.062L347.574 270.013L342.54 270.024L342.53 237.75L336.494 237.761L336.46 233.999Z"/>
	<path fill="#F1F3F3" transform="scale(1.95921 1.68112)" d="M184.984 234.003L202.043 233.987L202.01 237.772L196.254 237.749C195.766 238.53 196.116 242.163 196.116 243.219L196.136 263.625L196.075 270.004L191.044 270.024L191.023 237.745L184.987 237.756L184.984 234.003Z"/>
	<path fill="#F1F3F3" transform="scale(1.95921 1.68112)" d="M246.045 244.026C248.189 243.943 250.634 243.806 252.375 245.314C255.201 247.761 254.796 253.76 254.931 257.253L244.76 257.205C244.748 259.048 244.197 264.463 245.483 265.832C245.972 266.352 246.844 266.694 247.542 266.739C248.155 266.779 248.504 266.86 248.969 266.437C250.277 265.246 250.161 262.665 250.25 261.024L253.625 260.984C254.189 260.99 254.342 260.973 254.823 261.25C254.78 263.269 254.643 265.405 253.625 267.204C252.733 268.78 251.622 269.513 249.908 269.944C247.845 270.464 245.047 270.632 243.25 269.455C241.671 268.421 240.827 266.706 240.465 264.908L240.399 264.568C239.906 262.112 239.966 259.658 239.969 257.164C239.971 254.697 239.895 252.206 240.393 249.777L240.453 249.5C240.644 248.575 240.889 247.706 241.375 246.884C242.481 245.012 244.039 244.507 246.045 244.026Z"/>
	<path fill="#AC8BAE" transform="scale(1.95921 1.68112)" d="M246.883 247.625C247.662 247.509 248.189 247.511 248.875 247.952C249.506 248.357 249.74 248.643 249.902 249.375C250.197 250.713 250.528 253.608 249.875 254.751L248.323 254.791C247.232 254.798 245.762 254.998 244.737 254.666C244.735 252.952 244.543 250.806 245.12 249.188C245.483 248.167 245.96 248.036 246.883 247.625Z"/>
	<path fill="#F1F3F3" transform="scale(1.95921 1.68112)" d="M297.928 244.046C299.166 244.009 300.64 243.829 301.84 244.152L302.125 244.236C303.053 244.503 303.931 244.755 304.625 245.465C307.328 248.231 306.93 253.632 307.025 257.259L296.894 257.213C296.816 259.812 296.563 262.857 297.28 265.375C297.819 266.012 298.402 266.512 299.25 266.687C299.931 266.827 300.668 266.875 301.2 266.375C302.505 265.148 302.282 262.608 302.262 260.996L305.875 260.985L306.75 261.045L306.993 261.5C306.802 263.59 306.681 265.77 305.506 267.585C304.578 269.018 303.44 269.697 301.776 269.998L301.5 270.046C299.851 270.349 298.207 270.253 296.537 270.213C294.708 269.071 293.265 267.773 292.743 265.593L292.665 265.251C291.731 261.441 291.858 256.927 292.119 253.023C292.253 251.032 292.38 249.023 293.336 247.227C294.416 245.197 295.847 244.656 297.928 244.046Z"/>
	<path fill="#AC8BAE" transform="scale(1.95921 1.68112)" d="M298.95 247.625C299.487 247.549 299.957 247.488 300.475 247.694C301.261 248.007 301.719 248.356 301.989 249.185C302.36 250.326 302.557 253.707 302 254.737L299.802 254.795L296.814 254.816C296.779 253.038 296.747 250.945 297.265 249.234C297.572 248.219 298.066 248.053 298.95 247.625Z"/>
	<path fill="#F1F3F3" transform="scale(1.95921 1.68112)" d="M272.956 234.001L277.748 233.981L277.653 246.737C279.204 245.707 280.568 244.569 282.467 244.241L282.75 244.196L283.771 244.04C284.76 243.969 285.885 244.309 286.625 244.983C287.173 245.482 287.482 246.303 287.625 247.013C288.216 249.955 287.993 253.183 287.997 256.179L288.002 270.012L283.204 270.015L283.181 255.187C283.195 253.49 283.572 250.175 282.848 248.719C282.6 248.222 282.201 248.039 281.687 247.875C280.314 247.436 278.847 248.546 277.731 249.236L277.737 270.009L272.971 270.032L272.956 234.001Z"/>
	<path fill="#F1F3F3" transform="scale(1.95921 1.68112)" d="M359.248 244.029C361.306 243.969 363.375 243.865 365.181 245.062C366.674 246.051 367.393 247.766 367.772 249.444L367.866 249.875C368.408 252.195 368.288 254.659 368.286 257.031C368.282 260.324 368.617 264.603 366.854 267.544C365.87 269.187 364.352 269.815 362.577 270.243C360.677 270.325 358.504 270.42 356.785 269.486C355.106 268.572 354.338 266.972 353.832 265.223C353.184 262.982 353.269 260.423 353.259 258.112C353.243 254.514 352.901 250.067 354.796 246.853C355.861 245.048 357.355 244.561 359.248 244.029Z"/>
	<path fill="#AC8BAE" transform="scale(1.95921 1.68112)" d="M360.071 247.625C360.688 247.484 361.279 247.525 361.875 247.746C362.366 247.927 362.868 248.321 363.065 248.814C363.846 250.761 363.919 263.767 363.012 265.5C362.644 266.204 362.187 266.354 361.494 266.625L361.052 266.69C360.059 266.818 359.517 266.457 358.775 265.875C357.647 263.95 357.799 251.562 358.43 249.26C358.702 248.269 359.235 248.076 360.071 247.625Z"/>
	<path fill="#F1F3F3" transform="scale(1.95921 1.68112)" d="M415.012 244.026C416.906 243.955 418.472 243.951 420.253 244.723C421.581 245.298 422.712 246.766 423.157 248.125C424.459 252.098 424.709 263.929 422.646 267.453C421.656 269.142 420.257 269.796 418.424 270.238C416.564 270.282 414.468 270.498 412.747 269.647C411.207 268.885 410.218 267.546 409.748 265.914L409.654 265.573C408.9 262.97 408.985 260.219 408.982 257.535C408.979 255.565 408.903 253.552 409.162 251.596L409.227 251.125C409.429 249.578 409.703 248.175 410.535 246.825C411.643 245.027 413.069 244.509 415.012 244.026Z"/>
	<path fill="#AC8BAE" transform="scale(1.95921 1.68112)" d="M415.857 247.625L416.11 247.559C417.082 247.403 417.764 247.784 418.488 248.375C419.646 250.377 419.633 262.556 418.912 264.953C418.615 265.942 418.109 266.213 417.245 266.625C416.896 266.701 416.585 266.751 416.226 266.702C415.404 266.589 414.745 266.284 414.297 265.546C413.334 263.962 413.59 251.318 414.169 249.261C414.454 248.244 414.986 248.07 415.857 247.625Z"/>
	<path fill="#F1F3F3" transform="scale(1.95921 1.68112)" d="M207.688 244.028C208.818 243.997 210.11 243.861 211.207 244.159L211.5 244.245C212.217 244.449 213.011 244.626 213.645 245.034C215.009 245.91 215.953 247.716 216.28 249.258L216.359 249.659C216.878 252.204 216.796 254.826 216.792 257.413C216.786 260.575 217.11 264.883 215.324 267.661C214.264 269.311 212.758 269.796 210.953 270.248C209.282 270.306 207.159 270.46 205.625 269.713C204.294 269.064 203.266 267.95 202.767 266.56C201.624 263.381 201.764 260.007 201.766 256.68C201.767 253.661 201.659 249.814 203.114 247.086C204.183 245.081 205.689 244.644 207.688 244.028Z"/>
	<path fill="#AC8BAE" transform="scale(1.95921 1.68112)" d="M208.676 247.625C209.256 247.518 209.687 247.499 210.254 247.705C210.9 247.939 211.371 248.368 211.605 249.018C212.292 250.926 212.375 263.833 211.5 265.5C211.13 266.206 210.592 266.451 209.875 266.701C209.478 266.735 209.163 266.715 208.766 266.647C208.102 266.533 207.452 266.157 207.114 265.572C206.208 264.003 206.305 251.184 206.93 249.246C207.252 248.248 207.803 248.03 208.676 247.625Z"/>
	<path fill="#F1F3F3" transform="scale(1.95921 1.68112)" d="M132.271 215.058C134.504 214.985 136.642 215.757 138.27 217.287C140.09 218.998 140.592 220.649 140.678 223.103L140.709 233.73C140.698 235.33 140.966 237.414 140.153 238.834C138.713 241.347 135.648 243.748 133.643 245.875L133.125 246.184C132.075 245.484 131.169 244.399 130.28 243.504C128.82 242.036 125.937 239.79 125.428 237.777C124.981 236.008 125.245 233.648 125.243 231.822C125.237 228.055 124.426 221.811 126.603 218.549C127.983 216.481 129.889 215.517 132.271 215.058Z"/>
	<path fill="#F1F3F3" transform="scale(1.95921 1.68112)" d="M227.114 244.036L228.389 243.998C230.482 244.003 231.72 244.813 233.14 246.25L233.427 246.542C234.649 245.344 236.107 244.507 237.554 243.611L238.941 246.786L234.427 248.249C235.478 251.363 235.687 254.891 234.456 258C233.152 261.297 230.775 262.176 227.462 261.948C226.641 261.892 225.88 261.67 225.125 262.022C224.758 262.713 224.757 263.243 224.746 264C226.369 265.881 232.791 264.345 235.375 266.82C236.827 268.21 236.958 270.385 236.956 272.266L236.85 272.707C236.68 273.456 236.547 274.109 236.094 274.75C235.053 276.225 233.53 277.215 231.753 277.535C228.788 278.068 225.824 278.27 222.899 277.354C221.689 276.975 220.573 276.017 220.01 274.875C219.526 273.894 219.394 272.44 219.837 271.435C220.451 270.041 221.38 269.206 222.764 268.651L223.019 268.552C222.365 267.963 221.542 267.32 221.033 266.601C220.096 265.274 221.072 263.058 222.023 262C222.536 261.429 223.083 261.186 223.237 260.375C222.125 259.44 221.254 257.794 220.942 256.376C220.297 253.445 220.381 249.445 222.105 246.875C223.367 244.994 224.998 244.472 227.114 244.036Z"/>
	<path fill="#AC8BAE" transform="scale(1.95921 1.68112)" d="M225.757 268.625C226.308 268.544 226.767 268.618 227.316 268.685C229.196 268.913 231.883 268.992 233.125 270.56C233.228 271.055 233.33 271.445 233.19 271.949C232.873 273.095 232.016 273.421 231.037 273.911C229.691 274.125 228.522 274.295 227.161 274.078L226.75 274.007L226.081 273.903C225.438 273.782 224.452 273.441 224.105 272.863C223.789 272.336 223.654 271.836 223.842 271.232C224.183 270.138 224.757 269.193 225.757 268.625Z"/>
	<path fill="#AC8BAE" transform="scale(1.95921 1.68112)" d="M227.174 247.375C227.724 247.283 228.292 247.161 228.836 247.347C229.597 247.607 230.235 248.23 230.542 248.966C231.279 250.73 231.234 255.492 230.461 257.25C230.093 258.088 229.436 258.32 228.625 258.618C228.301 258.656 227.952 258.714 227.625 258.66C226.9 258.541 226.22 258.06 225.816 257.466C224.699 255.821 224.952 251.592 225.342 249.688C225.581 248.521 226.197 247.978 227.174 247.375Z"/>
	<path fill="#F1F3F3" transform="scale(1.95921 1.68112)" d="M386.473 233.995C390.32 233.959 395.266 233.391 398.918 234.606L399.25 234.722C399.724 234.885 400.185 235.046 400.625 235.291C402.471 236.32 403.645 237.86 404.225 239.881L404.326 240.247L404.721 242.125C405.153 245.389 405.01 248.79 405.007 252.077C405.003 255.838 405.257 260.232 404.239 263.875C403.867 265.209 403.228 266.231 402.404 267.314C398.363 270.793 391.455 270.025 386.483 270.015L386.473 233.995Z"/>
	<path fill="#AC8BAE" transform="scale(1.95921 1.68112)" d="M391.505 237.747L395.125 237.76C396.454 237.834 397.924 238.311 398.787 239.375C399.278 239.98 399.511 240.793 399.62 241.552C400.088 244.828 399.841 248.458 399.847 251.776C399.853 255.1 400.131 258.764 399.604 262.032L399.543 262.375C399.368 263.443 399.018 264.141 398.461 265.071C396.431 266.6 393.909 266.257 391.504 266.255L391.505 237.747Z"/>
	<path fill="#F1F3F3" transform="scale(1.95921 1.68112)" d="M158.718 223.304C160.184 223.155 161.94 223.441 163.216 224.21C164.602 225.045 166.066 227.061 166.486 228.588L166.56 228.875C166.78 229.68 166.989 230.42 166.951 231.265C166.892 232.586 166.54 233.926 165.817 235.038C164.628 236.866 162.677 238.505 161.155 240.065L151.792 249.482C154.081 249.722 156.563 249.489 158.875 249.485L173.928 249.501L173.925 263.022L167.177 263.035C165.277 263.035 151.645 263.333 150.904 262.923C150.255 262.564 149.351 261.447 148.78 260.902L141.925 254.337C143.777 252.249 146.55 249.89 147.652 247.331C148.324 245.771 148.597 243.916 147.928 242.301L147.794 242C146.995 240.155 145.347 238.334 143.657 237.233L142.568 236.498L150.151 229.271C151.857 227.636 153.663 225.535 155.69 224.313C156.642 223.74 157.643 223.531 158.718 223.304Z"/>
	<path fill="#F1F3F3" transform="scale(1.95921 1.68112)" d="M105.813 223.271C107.036 223.2 108.53 223.365 109.643 223.907C111.667 224.892 113.475 226.877 115.059 228.448C117.751 231.116 120.404 233.923 123.286 236.386L123.514 236.578L120.601 238.795C119.143 240.165 117.724 242.299 117.714 244.353C117.695 248.283 121.414 251.309 124.006 253.837C123.495 254.781 122.453 255.653 121.703 256.439L117.278 261.022C116.737 261.566 115.846 262.597 115.18 262.938C114.661 263.205 112.502 263.023 111.833 263.024L100.688 263.032L92.0368 263.019L92.0089 249.5L114.293 249.524L106.111 241.212C103.77 238.86 99.987 235.904 99.1433 232.596C98.6818 230.786 99.0547 228.544 100.062 226.989C101.403 224.92 103.486 223.847 105.813 223.271Z"/>
	<path fill="#F1F3F3" transform="scale(1.95921 1.68112)" d="M132.718 262.875L133.516 262.875L142.731 272.058C144.637 273.932 146.74 275.737 148.418 277.816L148.59 278.034L156.849 269.983C158.988 272.085 161.652 274.3 163.435 276.689C164.554 278.19 164.852 280.056 164.495 281.875C164.056 284.105 162.718 285.792 160.879 287.05C159.806 287.784 156.832 289.46 155.451 289.063C151.27 287.861 149.246 285.665 146.271 282.649L140.457 276.802L140.502 296.26L133.426 296.261L125.51 296.245L125.643 277.235L125.677 276.949C122.811 278.99 120.178 282.214 117.649 284.714C115.73 286.61 114.071 288.249 111.287 288.743L110.875 288.813C110.469 288.894 110.174 288.983 109.75 288.954C107.302 288.791 105.108 287.764 103.488 285.922C101.939 284.161 101.19 282.196 101.389 279.843C101.697 276.207 106.597 272.29 109.265 269.978L117.345 278.012L132.718 262.875Z"/>
</svg>
