<?xml version="1.0" encoding="utf-8" ?>
<svg xmlns="http://www.w3.org/2000/svg" xmlns:xlink="http://www.w3.org/1999/xlink" width="512" height="512">
	<path fill="#855594" d="M0 0L0 512L512 512L512 0L0 0Z"/>
	<path fill="#83D0CB" d="M256.481 168.395C256.335 168.536 256.421 168.492 256.222 168.527L243.111 155.79C239.976 152.652 235.888 149.097 235.641 144.331L235.649 112.195C235.654 109.262 235.501 106.257 236.067 103.363C237.938 93.7988 245.592 86.8639 255.43 86.3565C265.594 86.5574 275.411 93.8361 276.219 104.319C276.38 106.399 276.275 108.553 276.274 110.641L276.329 144.909C276.157 150.814 267.45 157.76 263.563 161.434L256.481 168.395Z"/>
	<path fill="#83D0CB" d="M169.597 212.839L147.804 212.916L147.89 177.609L207.399 177.558C206.768 177.173 204.355 174.646 203.531 173.89L175.412 145.847C173.348 143.898 171.247 142.001 169.626 139.647C160.658 126.626 169.432 109.441 184.714 107.97C191.745 107.077 197.069 110.794 201.881 115.291L227.524 140.126C228.573 141.155 229.598 142.251 230.895 142.97L231.024 143.039C229.681 143.611 228.504 144.563 227.356 145.448C221.364 150.065 215.687 155.358 215.457 163.517C215.225 171.739 220.752 177.318 226.003 182.85L232.238 189.537C230.79 190.648 229.543 192.19 228.247 193.488L218.278 203.587C217.004 204.861 209.519 212.498 208.693 212.775C208.014 213.002 206.777 212.839 206.046 212.839L169.597 212.839Z"/>
	<path fill="#83D0CB" d="M344.612 212.838L306.293 212.838C303.175 212.835 303.66 213.236 301.407 211.079L279.771 189.789L285.122 183.905C288.875 179.968 293.259 175.981 295.288 170.809C299.57 159.898 293.037 151.375 284.492 145.208C283.424 144.437 282.306 143.561 281.065 143.101L280.923 143.051C282.061 142.439 282.96 141.46 283.892 140.585L307.084 118.224C312.996 112.61 316.106 108.569 324.833 107.971C340.208 106.907 351.253 124.707 343.35 138.579C341.35 142.088 338.021 144.841 335.108 147.581L308.285 174.349C307.203 175.343 306.005 176.347 305.145 177.546L364.093 177.582C364.238 178.621 364.118 179.824 364.114 180.88L364.13 212.408C364.131 212.604 364.172 212.681 364.057 212.838L344.612 212.838Z"/>
	<path fill="#83D0CB" d="M256.291 301.165L236.264 301.156L236.339 249.623C235.663 250.507 234.608 251.341 233.824 252.169L218.585 267.348C214.731 271.162 211.058 275.687 206.381 278.496C192.531 286.816 173.205 276.581 172.433 260.479C172.047 252.421 174.728 249.482 180.08 244.05L187.855 236.298C189.521 234.692 191.326 233.16 192.879 231.445L214.526 252.701L256.103 211.533C258.127 213.199 259.934 215.222 261.779 217.084L288.904 244.1C291.71 246.901 294.907 249.533 297.399 252.612L319.345 231.224C320.385 232.684 321.87 233.966 323.136 235.238L330.615 242.749C332.782 244.929 335.117 247.09 336.848 249.645C347.497 265.364 327.625 288.839 307.275 279.217C304.134 277.732 301.558 275.455 299.091 273.057L278.491 252.03C277.938 251.406 276.109 249.679 275.88 249.173L275.763 301.137L256.291 301.165Z"/>
	<path fill="#83D0CB" d="M74.7221 415.818L74.7221 364.298L65 364.298L65 358.337L92.1793 358.337L92.1793 364.298L82.741 364.298L82.741 415.818L74.7221 415.818ZM103.888 416.386C100.861 416.386 98.4714 415.771 96.721 414.541C94.9705 413.311 93.7286 411.56 92.9954 409.29C92.2621 407.019 91.8954 404.346 91.8954 401.271L91.8954 389.349C91.8954 386.274 92.2621 383.6 92.9954 381.33C93.7286 379.059 94.9705 377.308 96.721 376.078C98.4714 374.848 100.861 374.233 103.888 374.233C106.916 374.233 109.293 374.848 111.02 376.078C112.747 377.308 113.977 379.059 114.71 381.33C115.444 383.6 115.81 386.274 115.81 389.349L115.81 401.271C115.81 404.346 115.444 407.019 114.71 409.29C113.977 411.56 112.747 413.311 111.02 414.541C109.293 415.771 106.916 416.386 103.888 416.386ZM103.888 410.78C105.355 410.78 106.384 410.354 106.975 409.502C107.567 408.651 107.921 407.527 108.04 406.132C108.158 404.736 108.217 403.281 108.217 401.767L108.217 388.923C108.217 387.362 108.158 385.895 108.04 384.523C107.921 383.151 107.567 382.027 106.975 381.152C106.384 380.277 105.355 379.839 103.888 379.839C102.422 379.839 101.381 380.277 100.766 381.152C100.151 382.027 99.7843 383.151 99.666 384.523C99.5477 385.895 99.4886 387.362 99.4886 388.923L99.4886 401.767C99.4886 403.281 99.5477 404.736 99.666 406.132C99.7843 407.527 100.151 408.651 100.766 409.502C101.381 410.354 102.422 410.78 103.888 410.78ZM133.551 428.663C131.044 428.663 128.785 428.391 126.774 427.847C124.764 427.303 123.179 426.463 122.02 425.327C120.861 424.192 120.281 422.702 120.281 420.857C120.281 419.437 120.612 418.196 121.275 417.131C121.937 416.067 122.788 415.156 123.829 414.399C124.87 413.642 125.958 413.051 127.094 412.625L130.642 413.122C130.027 413.689 129.435 414.269 128.868 414.86C128.3 415.452 127.827 416.067 127.448 416.705C127.07 417.344 126.881 418.042 126.881 418.799C126.881 420.029 127.413 420.951 128.477 421.566C129.542 422.181 131.446 422.489 134.19 422.489C136.887 422.489 138.886 422.17 140.187 421.531C141.487 420.892 142.138 419.887 142.138 418.515C142.138 417.663 141.973 416.965 141.641 416.421C141.31 415.877 140.742 415.44 139.938 415.109C139.134 414.777 137.975 414.541 136.461 414.399L127.519 413.264C125.674 413.027 124.302 412.436 123.403 411.489C122.505 410.543 122.055 409.502 122.055 408.367C122.055 406.664 122.54 405.221 123.51 404.038C124.48 402.855 125.793 401.531 127.448 400.064L130.003 402.051C129.719 402.43 129.364 402.962 128.939 403.648C128.513 404.334 128.3 405.008 128.3 405.67C128.3 406.191 128.572 406.617 129.116 406.948C129.66 407.279 130.524 407.492 131.706 407.586L138.59 408.225C141.807 408.509 144.196 409.479 145.757 411.135C147.318 412.79 148.099 415.156 148.099 418.231C148.099 420.502 147.567 422.418 146.502 423.979C145.438 425.54 143.841 426.711 141.712 427.492C139.583 428.272 136.863 428.663 133.551 428.663ZM133.835 403.187C131.044 403.187 128.773 402.572 127.023 401.342C125.272 400.112 123.983 398.408 123.155 396.232C122.327 394.056 121.913 391.572 121.913 388.781C121.913 385.611 122.363 382.95 123.262 380.797C124.16 378.645 125.497 377.013 127.271 375.901C129.045 374.789 131.233 374.233 133.835 374.233C136.532 374.233 138.732 374.907 140.435 376.256C142.138 377.604 143.392 379.39 144.196 381.614C145 383.837 145.402 386.297 145.402 388.994C145.402 391.785 145.035 394.257 144.302 396.41C143.569 398.562 142.363 400.23 140.683 401.413C139.004 402.595 136.721 403.187 133.835 403.187ZM133.835 397.722C134.876 397.722 135.704 397.521 136.319 397.119C136.934 396.717 137.395 396.138 137.703 395.381C138.01 394.624 138.223 393.689 138.341 392.577C138.46 391.466 138.519 390.2 138.519 388.781C138.519 387.362 138.471 386.084 138.377 384.949C138.283 383.813 138.07 382.855 137.738 382.075C137.407 381.294 136.934 380.691 136.319 380.265C135.704 379.839 134.9 379.627 133.906 379.627C132.865 379.627 132.026 379.828 131.387 380.23C130.748 380.632 130.252 381.223 129.897 382.004C129.542 382.784 129.305 383.742 129.187 384.878C129.069 386.013 129.01 387.314 129.01 388.781C129.01 390.058 129.069 391.241 129.187 392.329C129.305 393.417 129.53 394.363 129.861 395.168C130.192 395.972 130.677 396.599 131.316 397.048C131.955 397.498 132.794 397.722 133.835 397.722ZM143.983 381.684L142.209 378.846C142.587 378.184 143.439 377.356 144.764 376.362C146.089 375.369 147.508 374.541 149.022 373.878L151.009 378.846C150.346 378.988 149.459 379.248 148.347 379.627C147.235 380.005 146.231 380.395 145.331 380.797C144.432 381.2 143.983 381.495 143.983 381.684ZM164.988 416.386C161.772 416.386 159.288 415.759 157.537 414.505C155.787 413.252 154.569 411.407 153.883 408.97C153.196 406.534 152.854 403.541 152.854 399.993L152.854 390.626C152.854 386.983 153.208 383.955 153.918 381.543C154.628 379.13 155.87 377.308 157.644 376.078C159.418 374.848 161.866 374.233 164.988 374.233C168.442 374.233 170.985 374.943 172.617 376.362C174.249 377.781 175.326 379.828 175.846 382.501C176.366 385.174 176.627 388.379 176.627 392.116L176.627 395.452L160.447 395.452L160.447 403.683C160.447 405.339 160.601 406.687 160.908 407.728C161.215 408.769 161.712 409.538 162.398 410.035C163.085 410.531 163.972 410.78 165.059 410.78C166.195 410.78 167.059 410.508 167.65 409.964C168.241 409.42 168.643 408.639 168.856 407.622C169.069 406.605 169.175 405.41 169.175 404.038L169.175 401.554L176.556 401.554L176.556 403.116C176.556 407.232 175.681 410.472 173.93 412.838C172.179 415.203 169.199 416.386 164.988 416.386ZM160.447 391.336L169.175 391.336L169.175 387.645C169.175 385.942 169.081 384.511 168.892 383.352C168.702 382.193 168.312 381.318 167.721 380.726C167.129 380.135 166.195 379.839 164.918 379.839C163.688 379.839 162.753 380.123 162.114 380.691C161.476 381.259 161.038 382.217 160.802 383.565C160.565 384.913 160.447 386.77 160.447 389.136L160.447 391.336ZM194.439 416.386C192.31 416.386 190.594 415.984 189.294 415.18C187.993 414.375 187.046 413.24 186.455 411.773C185.864 410.307 185.568 408.58 185.568 406.593L185.568 379.839L181.239 379.839L181.239 374.801L185.568 374.801L185.568 362.808L193.161 362.808L193.161 374.801L199.761 374.801L199.761 379.839L193.161 379.839L193.161 406.096C193.161 407.705 193.422 408.852 193.942 409.538C194.462 410.224 195.456 410.567 196.922 410.567C197.301 410.567 197.738 410.543 198.235 410.496C198.732 410.449 199.217 410.401 199.69 410.354L199.69 415.96C198.744 416.102 197.868 416.209 197.064 416.279C196.26 416.35 195.385 416.386 194.439 416.386ZM205.58 415.818L205.58 358.337L213.173 358.337L213.173 379.059C214.545 377.734 216.083 376.599 217.786 375.653C219.489 374.706 221.382 374.233 223.463 374.233C225.072 374.233 226.314 374.659 227.189 375.511C228.064 376.362 228.679 377.427 229.034 378.704C229.388 379.981 229.566 381.282 229.566 382.607L229.566 415.818L221.973 415.818L221.973 384.807C221.973 383.34 221.76 382.205 221.334 381.401C220.908 380.596 220.033 380.194 218.708 380.194C217.809 380.194 216.875 380.454 215.905 380.975C214.935 381.495 214.025 382.134 213.173 382.891L213.173 415.818L205.58 415.818ZM248.3 416.386C245.084 416.386 242.6 415.759 240.849 414.505C239.098 413.252 237.881 411.407 237.195 408.97C236.508 406.534 236.166 403.541 236.166 399.993L236.166 390.626C236.166 386.983 236.52 383.955 237.23 381.543C237.94 379.13 239.181 377.308 240.956 376.078C242.73 374.848 245.178 374.233 248.3 374.233C251.754 374.233 254.297 374.943 255.929 376.362C257.561 377.781 258.638 379.828 259.158 382.501C259.678 385.174 259.939 388.379 259.939 392.116L259.939 395.452L243.759 395.452L243.759 403.683C243.759 405.339 243.913 406.687 244.22 407.728C244.527 408.769 245.024 409.538 245.71 410.035C246.396 410.531 247.283 410.78 248.371 410.78C249.507 410.78 250.37 410.508 250.962 409.964C251.553 409.42 251.955 408.639 252.168 407.622C252.381 406.605 252.487 405.41 252.487 404.038L252.487 401.554L259.868 401.554L259.868 403.116C259.868 407.232 258.993 410.472 257.242 412.838C255.491 415.203 252.511 416.386 248.3 416.386ZM243.759 391.336L252.487 391.336L252.487 387.645C252.487 385.942 252.393 384.511 252.203 383.352C252.014 382.193 251.624 381.318 251.033 380.726C250.441 380.135 249.507 379.839 248.229 379.839C247 379.839 246.065 380.123 245.426 380.691C244.788 381.259 244.35 382.217 244.114 383.565C243.877 384.913 243.759 386.77 243.759 389.136L243.759 391.336ZM267.035 415.818L267.035 374.801L274.628 374.801L274.628 380.62C276.142 378.113 277.656 376.433 279.17 375.582C280.683 374.73 282.198 374.304 283.711 374.304C283.901 374.304 284.078 374.304 284.244 374.304C284.409 374.304 284.634 374.328 284.918 374.375L284.918 382.749C284.35 382.512 283.699 382.311 282.966 382.146C282.233 381.98 281.488 381.897 280.731 381.897C279.548 381.897 278.472 382.169 277.502 382.713C276.532 383.258 275.574 384.31 274.628 385.871L274.628 415.818L267.035 415.818ZM288.608 398.077L288.608 392.329L304.433 392.329L304.433 398.077L288.608 398.077ZM316.852 415.818L316.852 364.298L307.13 364.298L307.13 358.337L334.309 358.337L334.309 364.298L324.871 364.298L324.871 415.818L316.852 415.818ZM346.018 416.386C342.99 416.386 340.601 415.771 338.851 414.541C337.1 413.311 335.858 411.56 335.125 409.29C334.392 407.019 334.025 404.346 334.025 401.271L334.025 389.349C334.025 386.274 334.392 383.6 335.125 381.33C335.858 379.059 337.1 377.308 338.851 376.078C340.601 374.848 342.99 374.233 346.018 374.233C349.046 374.233 351.423 374.848 353.15 376.078C354.876 377.308 356.107 379.059 356.84 381.33C357.573 383.6 357.94 386.274 357.94 389.349L357.94 401.271C357.94 404.346 357.573 407.019 356.84 409.29C356.107 411.56 354.876 413.311 353.15 414.541C351.423 415.771 349.046 416.386 346.018 416.386ZM346.018 410.78C347.485 410.78 348.514 410.354 349.105 409.502C349.696 408.651 350.051 407.527 350.169 406.132C350.288 404.736 350.347 403.281 350.347 401.767L350.347 388.923C350.347 387.362 350.288 385.895 350.169 384.523C350.051 383.151 349.696 382.027 349.105 381.152C348.514 380.277 347.485 379.839 346.018 379.839C344.551 379.839 343.511 380.277 342.896 381.152C342.28 382.027 341.914 383.151 341.796 384.523C341.677 385.895 341.618 387.362 341.618 388.923L341.618 401.767C341.618 403.281 341.677 404.736 341.796 406.132C341.914 407.527 342.28 408.651 342.896 409.502C343.511 410.354 344.551 410.78 346.018 410.78ZM363.901 398.077L363.901 392.329L379.726 392.329L379.726 398.077L363.901 398.077ZM387.035 415.818L387.035 358.337L399.525 358.337C403.783 358.337 407.154 358.988 409.637 360.289C412.121 361.59 413.895 363.541 414.96 366.143C416.024 368.745 416.556 371.986 416.556 375.865L416.556 397.013C416.556 401.081 416.024 404.511 414.96 407.303C413.895 410.094 412.169 412.211 409.779 413.654C407.39 415.097 404.185 415.818 400.164 415.818L387.035 415.818ZM395.054 410.07L399.596 410.07C402.529 410.07 404.611 409.502 405.841 408.367C407.071 407.232 407.816 405.576 408.076 403.399C408.337 401.223 408.466 398.598 408.466 395.522L408.466 376.859C408.466 373.878 408.277 371.466 407.899 369.621C407.521 367.775 406.692 366.427 405.415 365.576C404.138 364.724 402.127 364.298 399.383 364.298L395.054 364.298L395.054 410.07ZM435.078 416.386C432.05 416.386 429.661 415.771 427.911 414.541C426.16 413.311 424.918 411.56 424.185 409.29C423.452 407.019 423.085 404.346 423.085 401.271L423.085 389.349C423.085 386.274 423.452 383.6 424.185 381.33C424.918 379.059 426.16 377.308 427.911 376.078C429.661 374.848 432.05 374.233 435.078 374.233C438.106 374.233 440.483 374.848 442.21 376.078C443.936 377.308 445.167 379.059 445.9 381.33C446.633 383.6 447 386.274 447 389.349L447 401.271C447 404.346 446.633 407.019 445.9 409.29C445.167 411.56 443.936 413.311 442.21 414.541C440.483 415.771 438.106 416.386 435.078 416.386ZM435.078 410.78C436.545 410.78 437.574 410.354 438.165 409.502C438.756 408.651 439.111 407.527 439.229 406.132C439.348 404.736 439.407 403.281 439.407 401.767L439.407 388.923C439.407 387.362 439.348 385.895 439.229 384.523C439.111 383.151 438.756 382.027 438.165 381.152C437.574 380.277 436.545 379.839 435.078 379.839C433.611 379.839 432.571 380.277 431.956 381.152C431.34 382.027 430.974 383.151 430.856 384.523C430.737 385.895 430.678 387.362 430.678 388.923L430.678 401.767C430.678 403.281 430.737 404.736 430.856 406.132C430.974 407.527 431.34 408.651 431.956 409.502C432.571 410.354 433.611 410.78 435.078 410.78Z"/>
</svg>
